# Blender v2.92.0 OBJ File: 'Daisy_Wheel_V01.blend'
# www.blender.org
mtllib Daisy.mtl
o Circle
v -0.095652 0.236090 -0.004348
v -0.095652 0.166941 0.162593
v -0.095652 -0.000000 0.231742
v -0.095652 -0.166941 0.162593
v -0.095652 -0.236090 -0.004348
v -0.095652 -0.166941 -0.171288
v -0.095652 0.000000 -0.240438
v -0.095652 0.166941 -0.171289
v 0.095652 0.236090 -0.004348
v 0.095652 0.166941 0.162593
v 0.095652 -0.000000 0.231742
v 0.095652 -0.166941 0.162593
v 0.095652 -0.236090 -0.004348
v 0.095652 -0.166941 -0.171288
v 0.095652 0.000000 -0.240438
v 0.095652 0.166941 -0.171289
vt 0.000966 0.250483
vt 0.000966 0.125724
vt 0.133049 0.125724
vt 0.133049 0.250483
vt 0.000965 0.500000
vt 0.000965 0.375241
vt 0.133049 0.375241
vt 0.133049 0.500000
vt 0.000966 0.749517
vt 0.000965 0.624759
vt 0.133049 0.624759
vt 0.133049 0.749517
vt 0.000966 0.999034
vt 0.000966 0.874276
vt 0.133049 0.874276
vt 0.133049 0.999034
vt 0.000966 0.000965
vt 0.133049 0.000966
vt 0.347956 0.304090
vt 0.436174 0.392308
vt 0.223198 0.304090
vt 0.436174 0.517067
vt 0.134980 0.392308
vt 0.134980 0.517067
vt 0.347956 0.605284
vt 0.223198 0.605284
vt 0.223198 0.000965
vt 0.347956 0.000965
vt 0.436174 0.213942
vt 0.436174 0.089183
vt 0.134980 0.213942
vt 0.134980 0.089183
vt 0.223198 0.302159
vt 0.347956 0.302159
vn 0.0000 0.3827 -0.9239
vn 0.0000 -0.9239 -0.3827
vn 0.0000 -0.3827 0.9239
vn -0.0000 0.9239 0.3827
vn -0.0000 0.9239 -0.3827
vn 0.0000 -0.3827 -0.9239
vn 0.0000 -0.9239 0.3827
vn 0.0000 0.3827 0.9239
vn -1.0000 0.0000 -0.0000
vn 1.0000 -0.0000 -0.0000
usemtl Texture
s off
f 7/1/1 8/2/1 16/3/1 15/4/1
f 5/5/2 6/6/2 14/7/2 13/8/2
f 3/9/3 4/10/3 12/11/3 11/12/3
f 1/13/4 2/14/4 10/15/4 9/16/4
f 8/2/5 1/17/5 9/18/5 16/3/5
f 6/6/6 7/1/6 15/4/6 14/7/6
f 4/10/7 5/5/7 13/8/7 12/11/7
f 2/14/8 3/9/8 11/12/8 10/15/8
f 7/19/9 6/20/9 8/21/9
f 5/22/9 8/21/9 6/20/9
f 8/21/9 5/22/9 1/23/9
f 1/23/9 5/22/9 2/24/9
f 5/22/9 4/25/9 2/24/9
f 3/26/9 2/24/9 4/25/9
f 13/27/10 14/28/10 16/29/10
f 15/30/10 16/29/10 14/28/10
f 11/31/10 12/32/10 10/33/10
f 13/27/10 10/33/10 12/32/10
f 9/34/10 10/33/10 13/27/10
f 16/29/10 9/34/10 13/27/10
