# Blender v2.92.0 OBJ File: 'Rock_01_V01.blend'
# www.blender.org
mtllib Rock_01.mtl
o Cube
v 0.368411 0.484548 -0.379478
v 0.368493 0.386155 0.373310
v -0.399237 0.393630 -0.358845
v -0.326771 0.498113 0.385241
v 0.500000 0.000000 -0.500000
v -0.500000 0.000000 0.500000
v 0.500000 0.000000 0.500000
v -0.500000 0.000000 -0.500000
v -0.027105 0.511421 0.300006
v 0.500000 0.500000 0.000000
v -0.500000 0.500000 0.000000
v 0.000000 0.500000 -0.500000
v 0.000000 0.000000 -0.740440
v 0.867220 0.000000 0.000000
v -0.892678 0.000000 0.000000
v 0.000000 0.000000 0.575026
v -0.054353 0.682190 -0.064235
vt 0.312423 0.581118
vt 0.437995 0.365522
vt 0.504216 0.520192
vt 0.293493 0.060565
vt 0.307389 0.400963
vt 0.016935 0.321704
vt 0.000099 0.767304
vt 0.417638 0.735982
vt 0.373531 0.981556
vt 0.999901 0.204926
vt 0.587322 0.238839
vt 0.645637 0.000099
vt 0.761914 0.951554
vt 0.718860 0.563205
vt 0.999901 0.633684
vt 0.704588 0.387791
vt 0.602788 0.671731
vn -0.2897 0.8581 0.4240
vn -0.1429 0.2691 0.9524
vn -0.7244 0.3894 -0.5689
vn -0.3970 0.8436 -0.3615
vn 0.7298 0.4244 0.5360
vn 0.4101 0.3235 -0.8528
vn 0.8904 0.3219 -0.3219
vn 0.7310 0.5369 0.4212
vn -0.3975 0.3982 -0.8267
vn 0.2987 0.4136 -0.8601
vn -0.8426 0.3808 0.3808
vn 0.6936 0.5094 -0.5094
vn 0.1576 0.9179 -0.3641
vn -0.0135 0.4730 0.8809
vn 0.2448 0.8848 0.3965
vn -0.7292 0.5727 -0.3745
vn 0.2219 0.4709 0.8538
vn -0.6691 0.5255 0.5255
vn -0.0381 0.9990 0.0220
vn -0.3982 0.3975 -0.8267
vn 0.1389 0.3511 0.9260
vn 0.2218 0.9082 0.3551
vn 0.3244 0.9339 -0.1505
vn -0.3649 0.8419 -0.3975
usemtl Material
s off
f 11/1/1 9/2/1 17/3/1
f 16/4/2 4/5/2 6/6/2
f 15/7/3 3/8/3 8/9/3
f 3/8/4 11/1/4 17/3/4
f 14/10/5 2/11/5 7/12/5
f 13/13/6 1/14/6 5/15/6
f 5/15/7 1/14/7 10/16/7
f 14/10/8 10/16/8 2/11/8
f 3/8/9 13/13/9 8/9/9
f 13/13/10 12/17/10 1/14/10
f 6/6/11 4/5/11 11/1/11
f 5/15/12 10/16/12 14/10/12
f 1/14/13 12/17/13 17/3/13
f 2/11/14 9/2/14 16/4/14
f 10/16/15 17/3/15 9/2/15
f 15/7/16 11/1/16 3/8/16
f 16/4/17 9/2/17 4/5/17
f 6/6/18 11/1/18 15/7/18
f 11/1/19 4/5/19 9/2/19
f 3/8/20 12/17/20 13/13/20
f 2/11/21 16/4/21 7/12/21
f 10/16/22 9/2/22 2/11/22
f 1/14/23 17/3/23 10/16/23
f 3/8/24 17/3/24 12/17/24
