# Blender v2.92.0 OBJ File: 'Tree_V01.blend'
# www.blender.org
mtllib Tree.mtl
o Plane
v 1.000000 3.735944 0.000000
v -1.000000 3.735944 0.000000
v 1.000000 0.735944 0.000000
v -1.000000 0.735944 0.000000
v -0.200000 0.000000 0.200000
v -0.200000 1.161449 -0.200000
v -0.200000 0.000000 -0.200000
v 0.200000 0.000000 0.200000
v 0.200000 0.000000 -0.200000
v -0.200000 1.161449 0.200000
v 0.200000 1.161449 -0.200000
v 0.200000 1.161449 0.200000
v 0.000000 3.737811 0.000000
v -0.000000 3.735944 -1.000000
v 0.000000 3.735944 1.000000
v -0.000000 0.735944 -1.000000
v 0.000000 0.735944 1.000000
vt 0.051318 0.023799
vt 0.745557 0.023799
vt 0.745557 0.976201
vt 0.051318 0.976201
vt 0.803238 0.002461
vt 0.984212 0.002461
vt 0.984212 1.002461
vt 0.803238 1.002461
vt 0.803238 0.002461
vt 0.984212 0.002461
vt 0.984212 1.002461
vt 0.803238 1.002461
vt 0.803238 0.002461
vt 0.984212 0.002461
vt 0.984212 1.002461
vt 0.803238 0.002461
vt 0.984212 0.002461
vt 0.984212 1.002461
vt 0.803238 1.002461
vt 0.984212 1.002461
vt 0.803238 1.002461
vt 0.803238 0.002461
vt 0.984212 0.002461
vt 0.984212 1.002461
vt 0.803238 1.002461
vt 0.803238 0.002461
vt 0.984212 0.002461
vt 0.803238 0.002461
vt 0.984212 0.002461
vt 0.803238 0.002461
vt 0.984212 0.002461
vt 0.051318 0.023799
vt 0.745557 0.023799
vt 0.745557 0.976201
vt 0.051318 0.976201
vn 0.0000 0.0000 1.0000
vn 0.0000 0.0000 -1.0000
vn -1.0000 0.0000 0.0000
vn 0.0000 -0.0774 -0.9970
vn 0.0000 1.0000 0.0000
vn 1.0000 0.0000 0.0000
vn 0.0000 -0.0774 0.9970
vn 0.9970 -0.0774 0.0000
vn -0.9970 -0.0774 0.0000
usemtl Material
s off
f 4/1/1 3/2/1 1/3/1 2/4/1
f 8/5/2 5/6/2 10/7/2 12/8/2
f 9/9/3 8/10/3 12/11/3 11/12/3
f 12/13/4 10/14/4 13/15/4
f 7/16/1 9/17/1 11/18/1 6/19/1
f 7/16/5 5/6/5 8/20/5 9/21/5
f 5/22/6 7/23/6 6/24/6 10/25/6
f 6/26/7 11/27/7 13/15/7
f 10/28/8 6/29/8 13/15/8
f 11/30/9 12/31/9 13/15/9
f 17/32/6 16/33/6 14/34/6 15/35/6
