# Blender v2.92.0 OBJ File: 'Tree_V01.blend'
# www.blender.org
mtllib Tree.mtl
o Plane
v -0.838670 1.000000 -0.544639
v 0.838670 1.000000 0.544639
v -0.838670 3.750000 -0.544639
v 0.838670 3.750000 0.544639
v 0.000000 3.750000 1.000000
v 0.000000 1.000000 1.000000
v 0.000000 3.750000 -1.000000
v 0.000000 1.000000 -1.000000
v -0.838670 1.000000 0.544639
v 0.838670 1.000000 -0.544639
v -0.838670 3.750000 0.544639
v 0.838670 3.750000 -0.544639
v -0.200000 0.000000 0.200000
v 0.000000 3.000000 0.000000
v -0.200000 0.000000 -0.200000
v 0.200000 0.000000 0.200000
v 0.200000 0.000000 -0.200000
vt 0.017385 0.013972
vt 0.728797 0.013972
vt 0.728797 0.992164
vt 0.017385 0.992164
vt 0.017385 0.992164
vt 0.017385 0.013972
vt 0.728797 0.013972
vt 0.728797 0.992164
vt 0.020330 0.011030
vt 0.731742 0.011030
vt 0.731743 0.989222
vt 0.020330 0.989222
vt 0.944762 0.000642
vt 0.878248 1.000569
vt 0.811734 0.000642
vt 0.929260 0.006842
vt 0.862746 1.006769
vt 0.796232 0.006842
vt 0.892055 0.000642
vt 0.825541 1.000569
vt 0.759027 0.000642
vt 0.938561 0.000642
vt 0.872046 1.000569
vt 0.805533 0.000642
vt 0.125000 0.500000
vt 0.375000 0.500000
vt 0.375000 0.750000
vt 0.125000 0.750000
vn -0.5446 0.0000 0.8387
vn 1.0000 0.0000 0.0000
vn 0.5446 0.0000 0.8387
vn -0.9978 0.0665 0.0000
vn 0.0000 0.0665 -0.9978
vn 0.9978 0.0665 0.0000
vn 0.0000 0.0665 0.9978
vn 0.0000 -1.0000 0.0000
usemtl Material
s off
f 1/1/1 2/2/1 4/3/1 3/4/1
f 5/5/2 6/6/2 8/7/2 7/8/2
f 9/9/3 10/10/3 12/11/3 11/12/3
f 13/13/4 14/14/4 15/15/4
f 15/16/5 14/17/5 17/18/5
f 17/19/6 14/20/6 16/21/6
f 16/22/7 14/23/7 13/24/7
f 15/25/8 17/26/8 16/27/8 13/28/8
